<svg width="19" height="19" viewBox="0 0 19 19" fill="none" xmlns="http://www.w3.org/2000/svg">
<g id="tool">
<path id="Combined Shape" d="M10.6632 8.28847L10.2076 8.08244C10.1219 8.27202 10.1625 8.49489 10.3097 8.64202L10.6632 8.28847ZM4.2851 2.04617L4.06926 1.59516C3.92291 1.66519 3.81964 1.80189 3.79227 1.96181C3.76489 2.12174 3.81682 2.285 3.93155 2.39973L4.2851 2.04617ZM7.74073 5.5018L8.09428 5.85536C8.28954 5.66009 8.28954 5.34351 8.09428 5.14825L7.74073 5.5018ZM5.50156 7.74097L5.148 8.09453C5.24177 8.1883 5.36895 8.24097 5.50156 8.24097C5.63417 8.24097 5.76134 8.1883 5.85511 8.09453L5.50156 7.74097ZM2.04593 4.28534L2.39948 3.93179C2.28476 3.81706 2.12149 3.76514 1.96157 3.79251C1.80165 3.81989 1.66495 3.92316 1.59491 4.06951L2.04593 4.28534ZM7.71283 10.8797L8.06638 10.5262C7.93596 10.3958 7.74432 10.3477 7.5678 10.4012L7.71283 10.8797ZM16.0309 13.6562L16.3845 13.3026L16.3845 13.3026L16.0309 13.6562ZM10.583 6.33325C10.583 6.95779 10.4486 7.5496 10.2076 8.08244L11.1188 8.4945C11.4172 7.83474 11.583 7.10269 11.583 6.33325H10.583ZM6.33301 2.08325C8.68022 2.08325 10.583 3.98604 10.583 6.33325H11.583C11.583 3.43376 9.2325 1.08325 6.33301 1.08325V2.08325ZM4.50094 2.49719C5.05508 2.232 5.67597 2.08325 6.33301 2.08325V1.08325C5.52341 1.08325 4.7553 1.26685 4.06926 1.59516L4.50094 2.49719ZM8.09428 5.14825L4.63865 1.69262L3.93155 2.39973L7.38718 5.85536L8.09428 5.14825ZM5.85511 8.09453L8.09428 5.85536L7.38718 5.14825L5.148 7.38742L5.85511 8.09453ZM1.69238 4.6389L5.148 8.09453L5.85511 7.38742L2.39948 3.93179L1.69238 4.6389ZM2.08301 6.33325C2.08301 5.67622 2.23176 5.05533 2.49694 4.50118L1.59491 4.06951C1.26661 4.75554 1.08301 5.52366 1.08301 6.33325H2.08301ZM6.33301 10.5833C3.9858 10.5833 2.08301 8.68046 2.08301 6.33325H1.08301C1.08301 9.23275 3.43351 11.5833 6.33301 11.5833V10.5833ZM7.5678 10.4012C7.17764 10.5195 6.76322 10.5833 6.33301 10.5833V11.5833C6.86257 11.5833 7.37468 11.5047 7.85786 11.3582L7.5678 10.4012ZM13.6136 16.0734L8.06638 10.5262L7.35927 11.2333L12.9065 16.7806L13.6136 16.0734ZM15.6774 16.0734C15.1075 16.6433 14.1835 16.6433 13.6136 16.0734L12.9065 16.7806C13.8669 17.741 15.4241 17.741 16.3845 16.7806L15.6774 16.0734ZM15.6774 14.0097C16.2473 14.5796 16.2473 15.5036 15.6774 16.0734L16.3845 16.7806C17.3449 15.8201 17.3449 14.263 16.3845 13.3026L15.6774 14.0097ZM10.3097 8.64202L15.6774 14.0097L16.3845 13.3026L11.0168 7.93491L10.3097 8.64202Z" fill="#502564"/>
</g>
</svg>
